<?xml version="1.0" standalone="no"?>
<!DOCTYPE svg PUBLIC "-//W3C//DTD SVG 20010904//EN"
 "http://www.w3.org/TR/2001/REC-SVG-20010904/DTD/svg10.dtd">
<svg version="1.0" xmlns="http://www.w3.org/2000/svg"
 width="700.000000pt" height="700.000000pt" viewBox="0 0 700.000000 700.000000"
 preserveAspectRatio="xMidYMid meet">
<metadata>
Created by potrace 1.14, written by Peter Selinger 2001-2017
</metadata>
<g transform="translate(0.000000,700.000000) scale(0.100000,-0.100000)"
fill="#000000" stroke="none">
<path d="M1839 6996 c-2 -2 -31 -7 -64 -10 -78 -8 -115 -14 -200 -33 -93 -20
-100 -21 -100 -23 0 -1 -7 -3 -15 -5 -52 -10 -219 -73 -314 -118 -404 -193
-727 -507 -929 -902 -100 -197 -143 -335 -203 -650 -4 -22 -9 -1213 -11 -2648
l-3 -2607 2602 3 c1432 2 2623 6 2648 10 25 4 68 12 95 17 28 6 66 13 85 16
19 3 85 21 145 39 536 163 974 536 1220 1040 66 135 136 327 145 397 1 4 5 22
10 39 5 18 12 51 16 73 3 23 11 61 17 86 8 32 12 798 14 2663 l4 2617 -2579 0
c-1419 0 -2581 -2 -2583 -4z"/>
</g>
</svg>
